<svg width="35" height="76" viewBox="0 0 35 76" fill="none" xmlns="http://www.w3.org/2000/svg">
<path d="M17.9347 57.6286C14.7221 57.6286 11.9634 56.9232 9.65874 55.5124C7.36802 54.1017 5.60109 52.1532 4.35795 49.6669C3.12879 47.1667 2.5142 44.2893 2.5142 41.0348C2.5142 37.7663 3.14276 34.882 4.39986 32.3817C5.65696 29.8675 7.43087 27.912 9.72159 26.5153C12.0263 25.1045 14.75 24.3991 17.8928 24.3991C20.5047 24.3991 22.8164 24.881 24.8278 25.8448C26.8531 26.7946 28.4664 28.1425 29.6676 29.8885C30.8688 31.6205 31.5533 33.6458 31.7209 35.9645H24.4716C24.1783 34.4141 23.4799 33.122 22.3764 32.0884C21.2869 31.0408 19.8273 30.517 17.9975 30.517C16.4471 30.517 15.0852 30.9361 13.9119 31.7741C12.7386 32.5982 11.8237 33.7855 11.1673 35.3359C10.5247 36.8864 10.2035 38.7441 10.2035 40.9091C10.2035 43.102 10.5247 44.9877 11.1673 46.5661C11.8098 48.1304 12.7107 49.3387 13.87 50.1907C15.0433 51.0288 16.4192 51.4478 17.9975 51.4478C19.1149 51.4478 20.1136 51.2383 20.9936 50.8192C21.8875 50.3862 22.6348 49.7647 23.2354 48.9545C23.8361 48.1444 24.2481 47.1597 24.4716 46.0004H31.7209C31.5393 48.2771 30.8688 50.2955 29.7095 52.0554C28.5502 53.8014 26.9718 55.1702 24.9744 56.1619C22.977 57.1397 20.6304 57.6286 17.9347 57.6286Z" fill="black"/>
<rect x="4" y="66" width="30" height="10" fill="black"/>
</svg>
