<svg width="330" height="81" viewBox="0 0 330 81" fill="none" xmlns="http://www.w3.org/2000/svg">
<path d="M17.9347 57.6286C14.7221 57.6286 11.9634 56.9232 9.65874 55.5124C7.36802 54.1017 5.60109 52.1532 4.35795 49.6669C3.12879 47.1667 2.5142 44.2893 2.5142 41.0348C2.5142 37.7663 3.14276 34.882 4.39986 32.3817C5.65696 29.8675 7.43087 27.912 9.72159 26.5153C12.0263 25.1045 14.75 24.3991 17.8928 24.3991C20.5047 24.3991 22.8164 24.881 24.8278 25.8448C26.8531 26.7946 28.4664 28.1425 29.6676 29.8885C30.8688 31.6205 31.5533 33.6458 31.7209 35.9645H24.4716C24.1783 34.4141 23.4799 33.122 22.3764 32.0884C21.2869 31.0408 19.8273 30.517 17.9975 30.517C16.4471 30.517 15.0852 30.9361 13.9119 31.7741C12.7386 32.5982 11.8237 33.7855 11.1673 35.3359C10.5247 36.8864 10.2035 38.7441 10.2035 40.9091C10.2035 43.102 10.5247 44.9877 11.1673 46.5661C11.8098 48.1304 12.7107 49.3387 13.87 50.1907C15.0433 51.0288 16.4192 51.4478 17.9975 51.4478C19.1149 51.4478 20.1136 51.2383 20.9936 50.8192C21.8875 50.3862 22.6348 49.7647 23.2354 48.9545C23.8361 48.1444 24.2481 47.1597 24.4716 46.0004H31.7209C31.5393 48.2771 30.8688 50.2955 29.7095 52.0554C28.5502 53.8014 26.9718 55.1702 24.9744 56.1619C22.977 57.1397 20.6304 57.6286 17.9347 57.6286ZM51.9864 57.6286C48.8437 57.6286 46.1199 56.9371 43.8153 55.5543C41.5106 54.1715 39.7227 52.237 38.4516 49.7507C37.1945 47.2644 36.566 44.3591 36.566 41.0348C36.566 37.7105 37.1945 34.7982 38.4516 32.2979C39.7227 29.7977 41.5106 27.8562 43.8153 26.4734C46.1199 25.0906 48.8437 24.3991 51.9864 24.3991C55.1292 24.3991 57.8529 25.0906 60.1576 26.4734C62.4623 27.8562 64.2432 29.7977 65.5003 32.2979C66.7713 34.7982 67.4069 37.7105 67.4069 41.0348C67.4069 44.3591 66.7713 47.2644 65.5003 49.7507C64.2432 52.237 62.4623 54.1715 60.1576 55.5543C57.8529 56.9371 55.1292 57.6286 51.9864 57.6286ZM52.0283 51.5526C53.7324 51.5526 55.1571 51.0846 56.3025 50.1488C57.4478 49.199 58.2999 47.9279 58.8586 46.3356C59.4313 44.7433 59.7176 42.9693 59.7176 41.0138C59.7176 39.0444 59.4313 37.2635 58.8586 35.6712C58.2999 34.0649 57.4478 32.7868 56.3025 31.837C55.1571 30.8872 53.7324 30.4123 52.0283 30.4123C50.2823 30.4123 48.8297 30.8872 47.6704 31.837C46.525 32.7868 45.666 34.0649 45.0933 35.6712C44.5346 37.2635 44.2552 39.0444 44.2552 41.0138C44.2552 42.9693 44.5346 44.7433 45.0933 46.3356C45.666 47.9279 46.525 49.199 47.6704 50.1488C48.8297 51.0846 50.2823 51.5526 52.0283 51.5526ZM81.4288 38.1435V57H73.8443V24.8182H81.0936V30.2866H81.4707C82.211 28.4847 83.3913 27.053 85.0115 25.9915C86.6458 24.9299 88.6641 24.3991 91.0666 24.3991C93.2875 24.3991 95.222 24.8741 96.8702 25.8239C98.5324 26.7737 99.8174 28.1495 100.725 29.9513C101.647 31.7532 102.101 33.9392 102.087 36.5092V57H94.5027V37.6825C94.5027 35.5315 93.944 33.8484 92.8265 32.6332C91.7231 31.418 90.1936 30.8104 88.2381 30.8104C86.9112 30.8104 85.7309 31.1037 84.6973 31.6903C83.6776 32.263 82.8745 33.0941 82.2878 34.1836C81.7151 35.2731 81.4288 36.593 81.4288 38.1435ZM125.867 24.8182V30.6847H107.367V24.8182H125.867ZM111.934 17.108H119.519V47.3203C119.519 48.34 119.673 49.1222 119.98 49.6669C120.301 50.1977 120.72 50.5608 121.237 50.7564C121.754 50.9519 122.327 51.0497 122.955 51.0497C123.43 51.0497 123.863 51.0148 124.254 50.945C124.659 50.8751 124.966 50.8123 125.176 50.7564L126.454 56.6857C126.049 56.8254 125.469 56.979 124.715 57.1467C123.975 57.3143 123.067 57.4121 121.991 57.44C120.092 57.4959 118.381 57.2095 116.858 56.581C115.336 55.9384 114.127 54.9467 113.233 53.6058C112.354 52.2649 111.921 50.5888 111.934 48.5774V17.108ZM132.21 57V24.8182H139.565V30.1818H139.9C140.486 28.3241 141.492 26.8924 142.917 25.8867C144.355 24.8671 145.997 24.3572 147.84 24.3572C148.26 24.3572 148.727 24.3782 149.244 24.4201C149.775 24.448 150.215 24.4969 150.564 24.5668V31.5437C150.243 31.4319 149.733 31.3342 149.035 31.2504C148.35 31.1526 147.687 31.1037 147.044 31.1037C145.661 31.1037 144.418 31.404 143.315 32.0046C142.225 32.5913 141.366 33.4084 140.738 34.456C140.109 35.5036 139.795 36.7118 139.795 38.0806V57H132.21ZM164.288 57.6495C162.248 57.6495 160.411 57.2863 158.777 56.56C157.157 55.8197 155.872 54.7302 154.922 53.2915C153.986 51.8529 153.518 50.079 153.518 47.9698C153.518 46.154 153.854 44.6525 154.524 43.4652C155.195 42.2779 156.109 41.3281 157.269 40.6158C158.428 39.9034 159.734 39.3656 161.187 39.0025C162.653 38.6254 164.169 38.353 165.733 38.1854C167.619 37.9898 169.148 37.8152 170.322 37.6616C171.495 37.494 172.347 37.2425 172.878 36.9073C173.422 36.5581 173.695 36.0204 173.695 35.294V35.1683C173.695 33.59 173.227 32.3678 172.291 31.5018C171.355 30.6358 170.007 30.2028 168.247 30.2028C166.39 30.2028 164.916 30.6078 163.827 31.418C162.751 32.2281 162.025 33.1849 161.648 34.2884L154.566 33.2827C155.125 31.3272 156.047 29.6929 157.332 28.38C158.617 27.053 160.188 26.0613 162.046 25.4048C163.903 24.7344 165.957 24.3991 168.206 24.3991C169.756 24.3991 171.299 24.5807 172.836 24.9439C174.372 25.3071 175.776 25.9077 177.047 26.7457C178.318 27.5698 179.338 28.6942 180.106 30.119C180.888 31.5437 181.279 33.3246 181.279 35.4616V57H173.988V52.5792H173.737C173.276 53.4731 172.626 54.3112 171.788 55.0934C170.964 55.8616 169.924 56.4832 168.666 56.9581C167.423 57.419 165.964 57.6495 164.288 57.6495ZM166.257 52.0763C167.78 52.0763 169.099 51.776 170.217 51.1754C171.334 50.5608 172.193 49.7507 172.794 48.745C173.409 47.7393 173.716 46.6429 173.716 45.4556V41.6634C173.478 41.8589 173.073 42.0405 172.501 42.2081C171.942 42.3757 171.313 42.5224 170.615 42.6481C169.917 42.7738 169.225 42.8855 168.541 42.9833C167.856 43.0811 167.263 43.1649 166.76 43.2347C165.628 43.3884 164.616 43.6398 163.722 43.989C162.828 44.3382 162.123 44.8271 161.606 45.4556C161.089 46.0702 160.831 46.8664 160.831 47.8441C160.831 49.2409 161.34 50.2955 162.36 51.0078C163.38 51.7202 164.679 52.0763 166.257 52.0763ZM202.943 57.6286C199.731 57.6286 196.972 56.9232 194.668 55.5124C192.377 54.1017 190.61 52.1532 189.367 49.6669C188.138 47.1667 187.523 44.2893 187.523 41.0348C187.523 37.7663 188.152 34.882 189.409 32.3817C190.666 29.8675 192.44 27.912 194.73 26.5153C197.035 25.1045 199.759 24.3991 202.902 24.3991C205.514 24.3991 207.825 24.881 209.837 25.8448C211.862 26.7946 213.475 28.1425 214.676 29.8885C215.878 31.6205 216.562 33.6458 216.73 35.9645H209.48C209.187 34.4141 208.489 33.122 207.385 32.0884C206.296 31.0408 204.836 30.517 203.006 30.517C201.456 30.517 200.094 30.9361 198.921 31.7741C197.747 32.5982 196.833 33.7855 196.176 35.3359C195.534 36.8864 195.212 38.7441 195.212 40.9091C195.212 43.102 195.534 44.9877 196.176 46.5661C196.819 48.1304 197.719 49.3387 198.879 50.1907C200.052 51.0288 201.428 51.4478 203.006 51.4478C204.124 51.4478 205.122 51.2383 206.002 50.8192C206.896 50.3862 207.644 49.7647 208.244 48.9545C208.845 48.1444 209.257 47.1597 209.48 46.0004H216.73C216.548 48.2771 215.878 50.2955 214.718 52.0554C213.559 53.8014 211.981 55.1702 209.983 56.1619C207.986 57.1397 205.639 57.6286 202.943 57.6286ZM239.028 24.8182V30.6847H220.527V24.8182H239.028ZM225.095 17.108H232.679V47.3203C232.679 48.34 232.833 49.1222 233.14 49.6669C233.461 50.1977 233.88 50.5608 234.397 50.7564C234.914 50.9519 235.487 51.0497 236.115 51.0497C236.59 51.0497 237.023 51.0148 237.414 50.945C237.819 50.8751 238.127 50.8123 238.336 50.7564L239.614 56.6857C239.209 56.8254 238.629 56.979 237.875 57.1467C237.135 57.3143 236.227 57.4121 235.151 57.44C233.252 57.4959 231.541 57.2095 230.018 56.581C228.496 55.9384 227.288 54.9467 226.394 53.6058C225.514 52.2649 225.081 50.5888 225.095 48.5774V17.108ZM250.043 57.4609C248.772 57.4609 247.682 57.014 246.774 56.12C245.867 55.2261 245.42 54.1366 245.434 52.8516C245.42 51.5945 245.867 50.5189 246.774 49.625C247.682 48.7311 248.772 48.2841 250.043 48.2841C251.272 48.2841 252.341 48.7311 253.248 49.625C254.17 50.5189 254.638 51.5945 254.652 52.8516C254.638 53.7036 254.415 54.4788 253.982 55.1772C253.563 55.8756 253.004 56.4343 252.306 56.8533C251.621 57.2584 250.867 57.4609 250.043 57.4609ZM262.483 69.0682V24.8182H269.942V30.1399H270.382C270.773 29.3577 271.325 28.5266 272.037 27.6467C272.749 26.7527 273.713 25.9915 274.928 25.3629C276.143 24.7204 277.694 24.3991 279.58 24.3991C282.066 24.3991 284.308 25.0347 286.305 26.3058C288.316 27.5629 289.909 29.4276 291.082 31.8999C292.269 34.3582 292.863 37.3752 292.863 40.951C292.863 44.4848 292.283 47.4879 291.124 49.9602C289.965 52.4325 288.386 54.3182 286.389 55.6172C284.391 56.9162 282.129 57.5657 279.6 57.5657C277.757 57.5657 276.227 57.2584 275.012 56.6438C273.797 56.0292 272.819 55.2889 272.079 54.4229C271.353 53.543 270.787 52.7119 270.382 51.9297H270.067V69.0682H262.483ZM269.921 40.9091C269.921 42.9903 270.214 44.8131 270.801 46.3775C271.401 47.9419 272.26 49.1641 273.378 50.044C274.509 50.91 275.878 51.343 277.484 51.343C279.161 51.343 280.564 50.8961 281.696 50.0021C282.827 49.0942 283.679 47.8581 284.252 46.2937C284.838 44.7153 285.132 42.9205 285.132 40.9091C285.132 38.9117 284.845 37.1378 284.273 35.5874C283.7 34.0369 282.848 32.8217 281.717 31.9418C280.585 31.0618 279.174 30.6218 277.484 30.6218C275.864 30.6218 274.488 31.0478 273.357 31.8999C272.225 32.7519 271.366 33.9461 270.78 35.4826C270.207 37.0191 269.921 38.8279 269.921 40.9091ZM306.272 46.9013L306.251 37.7454H307.466L319.032 24.8182H327.894L313.668 40.6577H312.097L306.272 46.9013ZM299.358 57V14.0909H306.942V57H299.358ZM319.555 57L309.08 42.3548L314.192 37.0121L328.627 57H319.555Z" fill="black"/>
<path d="M2 71H32V81H2V71Z" fill="black"/>
</svg>
